PathFileType	4	(X/Y/Z)	50_2_109_p1_0-527.trc
DataRate	CameraRate	NumFrames	NumMarkers	Units	OrigDataRate	OrigDataStartFrame	OrigNumFrames
40.0	40.0	5	27	m	40.0	396	528
Frame#	Time	RHip			RKnee			RAnkle			RBigToe			RSmallToe			RHeel			LHip			LKnee			LAnkle			LBigToe			LSmallToe			LHeel			Neck			Head			Nose			RShoulder			RElbow			RWrist			RThumb			RIndex			RPinky			LShoulder			LElbow			LWrist			LThumb			LIndex			LPinky			
		X1	Y1	Z1	X2	Y2	Z2	X3	Y3	Z3	X4	Y4	Z4	X5	Y5	Z5	X6	Y6	Z6	X7	Y7	Z7	X8	Y8	Z8	X9	Y9	Z9	X10	Y10	Z10	X11	Y11	Z11	X12	Y12	Z12	X13	Y13	Z13	X14	Y14	Z14	X15	Y15	Z15	X16	Y16	Z16	X17	Y17	Z17	X18	Y18	Z18	X19	Y19	Z19	X20	Y20	Z20	X21	Y21	Z21	X22	Y22	Z22	X23	Y23	Z23	X24	Y24	Z24	X25	Y25	Z25	X26	Y26	Z26	X27	Y27	Z27	
396	9.9	0.33777849217988615	0.6689854592777981	0.5222914049882127	0.28642399809035973	0.791701645286923	0.9613628002139878	0.302129166117341	0.9871561587607702	1.3580662536794206	0.22777701168446238	0.7608681056040331	1.375379732569148	0.29970164110521497	0.811774683253417	1.3972596776335358	0.2864171388207063	1.1271786104115094	1.4308934056573355	0.13576108964450526	0.6873036762310317	0.513091333041478	0.1463735480356988	0.7927097490573957	0.952634095441324	0.11867552116907748	1.0394546112282468	1.3676142808350973	0.1051723292683074	0.7779507820480214	1.366567646456574	0.0670907624982236	0.8274794384269547	1.3712216355714797	0.13300195788012334	1.1575085799504776	1.4391857153095158	0.2160867155270455	0.6467163728993115	-0.05419944371816049	0.21898671591976598	0.483594799268022	-0.26973649606655986	0.21278638397704133	0.4687308646969982	-0.13352511976490666	0.3735685217702164	0.6472023287137928	0.039169308644611815	0.44992526783186615	0.5190051220837705	0.23673528067741745	0.47712845345197763	0.3161834600506296	0.08041339264580064	0.4763649388206522	0.3677032912274029	-0.04433042709717676	0.47082541438138187	0.31388747071170786	-0.05787434483103565	0.494879727808092	0.2944180623192184	-0.0015300127428217196	0.0697382358138443	0.6681906630076998	0.031137884358578623	-0.022004725561124563	0.4723509436965917	0.2505429646390651	-0.06708255770605126	0.3339571064536867	0.07517346910016255	-0.03299482834954026	0.3748207856740515	-0.020356030288893382	-0.025729435754138313	0.3688209053668128	-0.053477401293339076	-0.0464002944895344	0.3270581408169908	-0.03185879778802859
397	9.925	0.3377516832276078	0.668974213577959	0.5225155645728713	0.28740505558794405	0.7901867705900388	0.9568044547219152	0.3021590584214348	0.9874601204699945	1.3581155175324493	0.23214115269216426	0.776695680376357	1.3806490041265238	0.29967312679550606	0.8129681136994731	1.3945432006429892	0.2864679285580178	1.1280489270127279	1.4313283185082524	0.13992480598008453	0.6744115456853425	0.5201667339517547	0.1463077615589665	0.7923523773351315	0.9528840330636443	0.11846699385453724	1.0390202540280384	1.3675974547896874	0.10161926295886578	0.764467309126745	1.3624612939133158	0.06371619490942869	0.843638171557543	1.3728695684360845	0.13237105867323853	1.1559759886414607	1.4390048721553712	0.21209900596293288	0.6344039295560796	-0.05212560083419771	0.2189799493689244	0.4843341426108889	-0.2670119131543049	0.21653930970960727	0.48052147063208367	-0.13556337620035014	0.36829944828439726	0.6239339504725443	0.04568691839562142	0.45475116151653977	0.5333292070830798	0.24732069042313282	0.48759938516408113	0.34513862131924816	0.09839214324111567	0.5005487240693399	0.3506529955690478	-0.007251398913304717	0.48275963191546484	0.28673574277396474	0.009480428491174715	0.4856988502959059	0.2807266921685007	0.039775073493195826	0.07377933966529344	0.6537127896363941	0.03301839472242536	-0.023824975953127853	0.5046507842157351	0.26516063816372615	-0.06437204028264261	0.3537572687859041	0.1008543520079273	-0.043934848526858326	0.3977838867568523	0.008185510782812266	-0.03387526841109544	0.38730755484801643	-0.033994588093749306	-0.04784639076751691	0.3239437791115885	0.0011903635048966168
398	9.95	0.3377384839466184	0.6690996126598485	0.5228295310343367	0.28658525336646956	0.791180871022233	0.9612696686823914	0.3022013737912831	0.987379864508995	1.3580808287898876	0.2318291261258726	0.7753839617092622	1.3802303129658484	0.30022163320571105	0.8138073507366186	1.3978369347895565	0.2863255166180207	1.1277623724430965	1.4311202113984867	0.13629268980144715	0.6892646615493475	0.5210078617654259	0.14630292987680513	0.7923362509905598	0.9530188897620079	0.11865513095148858	1.039557360551799	1.3677282493667944	0.10494609511804465	0.7785365519475306	1.3669167498450823	0.06369014866692413	0.8435535529984564	1.3728454779171304	0.13286303265116509	1.1571086816152798	1.4391533438769317	0.21611598153140285	0.6485990320767643	-0.049977984075085684	0.2189515257326793	0.484502660885201	-0.26700277411256734	0.2165553692538478	0.48057140610529375	-0.13533057124697365	0.38095959221933656	0.634204018706888	0.04432450580321939	0.45536965838606375	0.5352249094329442	0.2546850083997528	0.48320792946942165	0.33647724341249324	0.10970993511076757	0.5175172663490165	0.369745527341801	0.004645073992752995	0.48728412658571507	0.2878548228925018	0.012346709382557513	0.4837038052071769	0.29276845900713105	0.05224055926326852	0.06986300062356816	0.6698032005730244	0.03553028484998911	-0.019538549471076628	0.5083602798727495	0.27225206672874847	-0.06493493880780586	0.3569402559762966	0.11718164324718675	-0.04906165720438577	0.41110950399660046	0.01889759284476766	-0.03639214482768818	0.37139225780490653	0.003488578545756583	-0.043545051081566005	0.30350452194236616	0.036320870717876326
399	9.975	0.33847324892232694	0.671287885153851	0.5265221229213662	0.29081021404578866	0.7737812369225042	0.953901181140245	0.3068487450211279	0.9887606215546336	1.358526491373273	0.23162085340252414	0.7737917228727489	1.3795437148388794	0.30368995820171	0.8246372193158142	1.4013500162385653	0.29089119782645495	1.1274778469768492	1.4308372941692447	0.14001837284085772	0.6746642581800427	0.5203525994356965	0.14631837843166443	0.7922302687326626	0.9529433476806285	0.11866322776068548	1.0395315894950705	1.367699584652017	0.10015250138540059	0.776057356095147	1.3660037053025147	0.06375751821103649	0.8430435980472233	1.372596323298126	0.13297100720662308	1.1575770165015287	1.4391516916638774	0.219663932777401	0.6608283910658307	-0.051440906916347985	0.21890693559168714	0.48460124893639867	-0.2669077408129686	0.21661546418902014	0.48052961646708475	-0.13531616733232785	0.38528748268913804	0.6354912604159562	0.044051977076035996	0.4487717081534249	0.5498376429657384	0.2621964843080854	0.4790674947580042	0.3545441979361538	0.137342949560605	0.5115808606976504	0.3574076195679133	0.020941733325543378	0.47629271057483247	0.2571005224171595	0.02067761706481647	0.4648112290656015	0.24541781139114976	0.08155986582428659	0.06682297727072392	0.6587451443493771	0.04518671579809912	-0.02479355273910937	0.5230133421734845	0.2841427618033927	-0.06526377136001543	0.36029165482806474	0.1351436877285124	-0.03174953580226962	0.41598628569569407	0.03843449366094695	-0.03008043152906622	0.3642733314526544	0.02156114938779407	-0.05754225746258922	0.27034038574099717	0.05475515452181231
400	10.0	0.33780745253759326	0.6692900964543532	0.522767742563553	0.29068004519259083	0.7733721259910178	0.9537744644236337	0.30688150988482454	0.9888479021045544	1.3584605362432367	0.2331031158564196	0.7774734002339033	1.3806681685194704	0.3043133664684792	0.8259372185580623	1.3984398148433212	0.2907856608054387	1.1282804747248054	1.4267982847873537	0.13936144502968562	0.6720575014491962	0.512552946802968	0.1462168285880038	0.7924485872187484	0.9490118549482256	0.11848525794353013	1.03849801362286	1.3673559113963878	0.09678121779450537	0.7615252562557996	1.3614460140784537	0.0677322269849124	0.8254276286708642	1.3671926681089759	0.13261071743555142	1.1557280772371878	1.438198075019035	0.21972863287398622	0.6607006156406767	-0.05146407936745241	0.21871464571699215	0.4829117010089902	-0.2701228867625165	0.21287375456793384	0.46918387830328195	-0.13332474644141074	0.3856381106478072	0.636153308202677	0.04802809577928795	0.44951102456045233	0.5519903571606116	0.26942967484965996	0.47608086535169813	0.350107132681783	0.16211408735607982	0.4965057582615819	0.3187711218481493	0.03522319080520598	0.4660181371809902	0.24977281077657162	0.03866124025996973	0.4731737053432858	0.27543603866312016	0.10021489483892569	0.06697396645216354	0.6575962839394054	0.045778876876782976	-0.009859205098931218	0.5959114311448642	0.28998518765417103	-0.06473646799309449	0.36580046501924923	0.1527699038000721	-0.031212073391167983	0.4202958421952027	0.04600495180638347	-0.02836360279835593	0.38080741584391115	0.031827036568444385	-0.05028921899029785	0.2739602150709595	0.07809663050593474
